<svg xmlns="http://www.w3.org/2000/svg" xmlns:xlink="http://www.w3.org/1999/xlink" version="1.1" class="marks" width="1027" height="386" viewBox="0 0 1027 386"><rect width="1027" height="386" fill="white"/><g fill="none" stroke-miterlimit="10" transform="translate(47,41)"><g class="mark-group role-frame root" role="graphics-object" aria-roledescription="group mark container"><g transform="translate(0,0)"><path class="background" aria-hidden="true" d="M0.5,0.5h832v290h-832Z" stroke="#ddd"/><g><g class="mark-group role-axis" aria-hidden="true"><g transform="translate(0.5,290.5)"><path class="background" aria-hidden="true" d="M0,0h0v0h0Z" pointer-events="none"/><g><g class="mark-rule role-axis-grid" pointer-events="none"><line transform="translate(69,-290)" x2="0" y2="290" stroke="#ddd" stroke-width="1" opacity="1"/><line transform="translate(184,-290)" x2="0" y2="290" stroke="#ddd" stroke-width="1" opacity="1"/><line transform="translate(300,-290)" x2="0" y2="290" stroke="#ddd" stroke-width="1" opacity="1"/><line transform="translate(416,-290)" x2="0" y2="290" stroke="#ddd" stroke-width="1" opacity="1"/><line transform="translate(531,-290)" x2="0" y2="290" stroke="#ddd" stroke-width="1" opacity="1"/><line transform="translate(647,-290)" x2="0" y2="290" stroke="#ddd" stroke-width="1" opacity="1"/><line transform="translate(762,-290)" x2="0" y2="290" stroke="#ddd" stroke-width="1" opacity="1"/></g></g><path class="foreground" aria-hidden="true" d="" pointer-events="none" display="none"/></g></g><g class="mark-group role-axis" aria-hidden="true"><g transform="translate(0.5,0.5)"><path class="background" aria-hidden="true" d="M0,0h0v0h0Z" pointer-events="none"/><g><g class="mark-rule role-axis-grid" pointer-events="none"><line transform="translate(0,290)" x2="832" y2="0" stroke="#ddd" stroke-width="1" opacity="1"/><line transform="translate(0,249)" x2="832" y2="0" stroke="#ddd" stroke-width="1" opacity="1"/><line transform="translate(0,207)" x2="832" y2="0" stroke="#ddd" stroke-width="1" opacity="1"/><line transform="translate(0,166)" x2="832" y2="0" stroke="#ddd" stroke-width="1" opacity="1"/><line transform="translate(0,124)" x2="832" y2="0" stroke="#ddd" stroke-width="1" opacity="1"/><line transform="translate(0,83)" x2="832" y2="0" stroke="#ddd" stroke-width="1" opacity="1"/><line transform="translate(0,41)" x2="832" y2="0" stroke="#ddd" stroke-width="1" opacity="1"/><line transform="translate(0,0)" x2="832" y2="0" stroke="#ddd" stroke-width="1" opacity="1"/></g></g><path class="foreground" aria-hidden="true" d="" pointer-events="none" display="none"/></g></g><g class="mark-group role-axis" role="graphics-symbol" aria-roledescription="axis" aria-label="X-axis titled 'Value Size (bytes)' for a discrete scale with 7 values: 256, 512, 1024, 2048, 4096, 8192, 16384"><g transform="translate(0.5,290.5)"><path class="background" aria-hidden="true" d="M0,0h0v0h0Z" pointer-events="none"/><g><g class="mark-rule role-axis-tick" pointer-events="none"><line transform="translate(69,0)" x2="0" y2="5" stroke="#888" stroke-width="1" opacity="1"/><line transform="translate(184,0)" x2="0" y2="5" stroke="#888" stroke-width="1" opacity="1"/><line transform="translate(300,0)" x2="0" y2="5" stroke="#888" stroke-width="1" opacity="1"/><line transform="translate(416,0)" x2="0" y2="5" stroke="#888" stroke-width="1" opacity="1"/><line transform="translate(531,0)" x2="0" y2="5" stroke="#888" stroke-width="1" opacity="1"/><line transform="translate(647,0)" x2="0" y2="5" stroke="#888" stroke-width="1" opacity="1"/><line transform="translate(762,0)" x2="0" y2="5" stroke="#888" stroke-width="1" opacity="1"/></g><g class="mark-text role-axis-label" pointer-events="none"><text text-anchor="end" transform="translate(68.83333333333337,7) rotate(270) translate(0,3)" font-family="sans-serif" font-size="10px" fill="#000" opacity="1">256</text><text text-anchor="end" transform="translate(184.3888888888889,7) rotate(270) translate(0,3)" font-family="sans-serif" font-size="10px" fill="#000" opacity="1">512</text><text text-anchor="end" transform="translate(299.94444444444446,7) rotate(270) translate(0,3)" font-family="sans-serif" font-size="10px" fill="#000" opacity="1">1024</text><text text-anchor="end" transform="translate(415.50000000000006,7) rotate(270) translate(0,3)" font-family="sans-serif" font-size="10px" fill="#000" opacity="1">2048</text><text text-anchor="end" transform="translate(531.0555555555557,7) rotate(270) translate(0,3)" font-family="sans-serif" font-size="10px" fill="#000" opacity="1">4096</text><text text-anchor="end" transform="translate(646.6111111111111,7) rotate(270) translate(0,3)" font-family="sans-serif" font-size="10px" fill="#000" opacity="1">8192</text><text text-anchor="end" transform="translate(762.1666666666667,7) rotate(270) translate(0,3)" font-family="sans-serif" font-size="10px" fill="#000" opacity="1">16384</text></g><g class="mark-rule role-axis-domain" pointer-events="none"><line transform="translate(0,0)" x2="832" y2="0" stroke="#888" stroke-width="1" opacity="1"/></g><g class="mark-text role-axis-title" pointer-events="none"><text text-anchor="middle" transform="translate(416,47.83333396911621)" font-family="sans-serif" font-size="11px" font-weight="bold" fill="#000" opacity="1">Value Size (bytes)</text></g></g><path class="foreground" aria-hidden="true" d="" pointer-events="none" display="none"/></g></g><g class="mark-group role-axis" role="graphics-symbol" aria-roledescription="axis" aria-label="Y-axis titled 'Read Latency (S) (Lower Is Better)' for a linear scale with values from 0.00 to 0.35"><g transform="translate(0.5,0.5)"><path class="background" aria-hidden="true" d="M0,0h0v0h0Z" pointer-events="none"/><g><g class="mark-rule role-axis-tick" pointer-events="none"><line transform="translate(0,290)" x2="-5" y2="0" stroke="#888" stroke-width="1" opacity="1"/><line transform="translate(0,249)" x2="-5" y2="0" stroke="#888" stroke-width="1" opacity="1"/><line transform="translate(0,207)" x2="-5" y2="0" stroke="#888" stroke-width="1" opacity="1"/><line transform="translate(0,166)" x2="-5" y2="0" stroke="#888" stroke-width="1" opacity="1"/><line transform="translate(0,124)" x2="-5" y2="0" stroke="#888" stroke-width="1" opacity="1"/><line transform="translate(0,83)" x2="-5" y2="0" stroke="#888" stroke-width="1" opacity="1"/><line transform="translate(0,41)" x2="-5" y2="0" stroke="#888" stroke-width="1" opacity="1"/><line transform="translate(0,0)" x2="-5" y2="0" stroke="#888" stroke-width="1" opacity="1"/></g><g class="mark-text role-axis-label" pointer-events="none"><text text-anchor="end" transform="translate(-7,293)" font-family="sans-serif" font-size="10px" fill="#000" opacity="1">0.00</text><text text-anchor="end" transform="translate(-7,251.57142857142856)" font-family="sans-serif" font-size="10px" fill="#000" opacity="1">0.05</text><text text-anchor="end" transform="translate(-7,210.1428571428571)" font-family="sans-serif" font-size="10px" fill="#000" opacity="1">0.10</text><text text-anchor="end" transform="translate(-7,168.7142857142857)" font-family="sans-serif" font-size="10px" fill="#000" opacity="1">0.15</text><text text-anchor="end" transform="translate(-7,127.28571428571426)" font-family="sans-serif" font-size="10px" fill="#000" opacity="1">0.20</text><text text-anchor="end" transform="translate(-7,85.85714285714285)" font-family="sans-serif" font-size="10px" fill="#000" opacity="1">0.25</text><text text-anchor="end" transform="translate(-7,44.42857142857141)" font-family="sans-serif" font-size="10px" fill="#000" opacity="1">0.30</text><text text-anchor="end" transform="translate(-7,3)" font-family="sans-serif" font-size="10px" fill="#000" opacity="1">0.35</text></g><g class="mark-rule role-axis-domain" pointer-events="none"><line transform="translate(0,290)" x2="0" y2="-290" stroke="#888" stroke-width="1" opacity="1"/></g><g class="mark-text role-axis-title" pointer-events="none"><text text-anchor="middle" transform="translate(-30.46666717529297,145) rotate(-90) translate(0,-2)" font-family="sans-serif" font-size="11px" font-weight="bold" fill="#000" opacity="1">Read Latency (S) (Lower Is Better)</text></g></g><path class="foreground" aria-hidden="true" d="" pointer-events="none" display="none"/></g></g><g class="mark-rect role-mark layer_0_marks" role="graphics-object" aria-roledescription="rect mark container"><path aria-label="Value Size (bytes): 256; Read Latency (S) (Lower Is Better): 0.0195599999279; config: bolt: bucket; Database Configuration: bolt: bucket" role="graphics-symbol" aria-roledescription="bar" d="M23.111111111111143,273.79314291690076h30.81481481481482v16.206857083099237h-30.81481481481482Z" fill="#1f77b4"/><path aria-label="Value Size (bytes): 256; Read Latency (S) (Lower Is Better): 0.0243599992245; config: pg: bucket; Database Configuration: pg: bucket" role="graphics-symbol" aria-roledescription="bar" d="M53.92592592592597,269.81600064252103h30.81481481481482v20.183999357478967h-30.81481481481482Z" fill="#ff7f0e"/><path aria-label="Value Size (bytes): 256; Read Latency (S) (Lower Is Better): 0.0229000002146; config: pg: bucket_keys; Database Configuration: pg: bucket_keys" role="graphics-symbol" aria-roledescription="bar" d="M84.74074074074079,271.02571410792217h30.81481481481482v18.97428589207783h-30.81481481481482Z" fill="#2ca02c"/><path aria-label="Value Size (bytes): 512; Read Latency (S) (Lower Is Better): 0.020300000906; config: bolt: bucket; Database Configuration: bolt: bucket" role="graphics-symbol" aria-roledescription="bar" d="M138.66666666666669,273.17999924932207h30.81481481481482v16.820000750677934h-30.81481481481482Z" fill="#1f77b4"/><path aria-label="Value Size (bytes): 512; Read Latency (S) (Lower Is Better): 0.0265999976546; config: pg: bucket; Database Configuration: pg: bucket" role="graphics-symbol" aria-roledescription="bar" d="M169.4814814814815,267.9600019433669h30.81481481481482v22.039998056633124h-30.81481481481482Z" fill="#ff7f0e"/><path aria-label="Value Size (bytes): 512; Read Latency (S) (Lower Is Better): 0.0241400003433; config: pg: bucket_keys; Database Configuration: pg: bucket_keys" role="graphics-symbol" aria-roledescription="bar" d="M200.29629629629633,269.9982854298183h30.81481481481482v20.00171457018172h-30.81481481481482Z" fill="#2ca02c"/><path aria-label="Value Size (bytes): 1024; Read Latency (S) (Lower Is Better): 0.0216000024229; config: bolt: bucket; Database Configuration: bolt: bucket" role="graphics-symbol" aria-roledescription="bar" d="M254.22222222222226,272.10285513528754h30.81481481481482v17.89714486471246h-30.81481481481482Z" fill="#1f77b4"/><path aria-label="Value Size (bytes): 1024; Read Latency (S) (Lower Is Better): 0.0266600009054; config: pg: bucket; Database Configuration: pg: bucket" role="graphics-symbol" aria-roledescription="bar" d="M285.03703703703707,267.91028496410166h30.81481481481482v22.089715035898337h-30.81481481481482Z" fill="#ff7f0e"/><path aria-label="Value Size (bytes): 1024; Read Latency (S) (Lower Is Better): 0.0252399984747; config: pg: bucket_keys; Database Configuration: pg: bucket_keys" role="graphics-symbol" aria-roledescription="bar" d="M315.8518518518519,269.08685840666294h30.81481481481482v20.91314159333706h-30.81481481481482Z" fill="#2ca02c"/><path aria-label="Value Size (bytes): 2048; Read Latency (S) (Lower Is Better): 0.0231400020421; config: bolt: bucket; Database Configuration: bolt: bucket" role="graphics-symbol" aria-roledescription="bar" d="M369.7777777777778,270.8268554508686h30.81481481481482v19.173144549131393h-30.81481481481482Z" fill="#1f77b4"/><path aria-label="Value Size (bytes): 2048; Read Latency (S) (Lower Is Better): 0.0331199988723; config: pg: bucket; Database Configuration: pg: bucket" role="graphics-symbol" aria-roledescription="bar" d="M400.59259259259267,262.55771522011077h30.81481481481482v27.442284779889235h-30.81481481481482Z" fill="#ff7f0e"/><path aria-label="Value Size (bytes): 2048; Read Latency (S) (Lower Is Better): 0.0302199982107; config: pg: bucket_keys; Database Configuration: pg: bucket_keys" role="graphics-symbol" aria-roledescription="bar" d="M431.40740740740745,264.96057291116034h30.81481481481482v25.03942708883966h-30.81481481481482Z" fill="#2ca02c"/><path aria-label="Value Size (bytes): 4096; Read Latency (S) (Lower Is Better): 0.0272000022233; config: bolt: bucket; Database Configuration: bolt: bucket" role="graphics-symbol" aria-roledescription="bar" d="M485.33333333333337,267.462855300733h30.81481481481482v22.537144699267003h-30.81481481481482Z" fill="#1f77b4"/><path aria-label="Value Size (bytes): 4096; Read Latency (S) (Lower Is Better): 0.0406400002539; config: pg: bucket; Database Configuration: pg: bucket" role="graphics-symbol" aria-roledescription="bar" d="M516.1481481481482,256.32685693246975h30.81481481481482v33.67314306753025h-30.81481481481482Z" fill="#ff7f0e"/><path aria-label="Value Size (bytes): 4096; Read Latency (S) (Lower Is Better): 0.0364600010216; config: pg: bucket_keys; Database Configuration: pg: bucket_keys" role="graphics-symbol" aria-roledescription="bar" d="M546.962962962963,259.79028486779754h30.81481481481482v30.20971513220246h-30.81481481481482Z" fill="#2ca02c"/><path aria-label="Value Size (bytes): 8192; Read Latency (S) (Lower Is Better): 0.0307399984449; config: bolt: bucket; Database Configuration: bolt: bucket" role="graphics-symbol" aria-roledescription="bar" d="M600.8888888888889,264.5297155742134h30.81481481481482v25.470284425786588h-30.81481481481482Z" fill="#1f77b4"/><path aria-label="Value Size (bytes): 8192; Read Latency (S) (Lower Is Better): 0.0500999987125; config: pg: bucket; Database Configuration: pg: bucket" role="graphics-symbol" aria-roledescription="bar" d="M631.7037037037037,248.4885724953243h30.81481481481482v41.51142750467571h-30.81481481481482Z" fill="#ff7f0e"/><path aria-label="Value Size (bytes): 8192; Read Latency (S) (Lower Is Better): 0.0479600019753; config: pg: bucket_keys; Database Configuration: pg: bucket_keys" role="graphics-symbol" aria-roledescription="bar" d="M662.5185185185186,250.26171264903886h30.81481481481482v39.738287350961144h-30.81481481481482Z" fill="#2ca02c"/><path aria-label="Value Size (bytes): 16384; Read Latency (S) (Lower Is Better): 0.039479997009; config: bolt: bucket; Database Configuration: bolt: bucket" role="graphics-symbol" aria-roledescription="bar" d="M716.4444444444446,257.2880024782249h30.81481481481482v32.71199752177512h-30.81481481481482Z" fill="#1f77b4"/><path aria-label="Value Size (bytes): 16384; Read Latency (S) (Lower Is Better): 0.0695199966431; config: pg: bucket; Database Configuration: pg: bucket" role="graphics-symbol" aria-roledescription="bar" d="M747.2592592592594,232.39771706717355h30.81481481481482v57.602282932826455h-30.81481481481482Z" fill="#ff7f0e"/><path aria-label="Value Size (bytes): 16384; Read Latency (S) (Lower Is Better): 0.0696199983358; config: pg: bucket_keys; Database Configuration: pg: bucket_keys" role="graphics-symbol" aria-roledescription="bar" d="M778.0740740740742,232.31485852173395h30.81481481481482v57.68514147826605h-30.81481481481482Z" fill="#2ca02c"/></g><g class="mark-rule role-mark layer_1_marks" role="graphics-object" aria-roledescription="rule mark container"><line aria-label="Value Size (bytes): 256; stddev_lower: 0.0133599992841; stddev_upper: 0.0257600005716; config: bolt: bucket" role="graphics-symbol" aria-roledescription="rule mark" transform="translate(38.518518518518555,278.93028630742003)" x2="0" y2="-10.27428678103854" stroke="black"/><line aria-label="Value Size (bytes): 256; stddev_lower: 0.0112399989739; stddev_upper: 0.0374800004065; config: pg: bucket" role="graphics-symbol" aria-roledescription="rule mark" transform="translate(69.33333333333337,280.6868579930493)" x2="0" y2="-21.74171547272374" stroke="black"/><line aria-label="Value Size (bytes): 256; stddev_lower: 0.0133400000632; stddev_upper: 0.032460000366; config: pg: bucket_keys" role="graphics-symbol" aria-roledescription="rule mark" transform="translate(100.1481481481482,278.94685709050725)" x2="0" y2="-15.84228596517022" stroke="black"/><line aria-label="Value Size (bytes): 512; stddev_lower: 0.0138000007719; stddev_upper: 0.0268000010401; config: bolt: bucket" role="graphics-symbol" aria-roledescription="rule mark" transform="translate(154.0740740740741,278.56571364615644)" x2="0" y2="-10.771428793668747" stroke="black"/><line aria-label="Value Size (bytes): 512; stddev_lower: 0.011679998599; stddev_upper: 0.0415199957788; config: pg: bucket" role="graphics-symbol" aria-roledescription="rule mark" transform="translate(184.8888888888889,280.32228687512026)" x2="0" y2="-24.72456909183947" stroke="black"/><line aria-label="Value Size (bytes): 512; stddev_lower: 0.0134600009769; stddev_upper: 0.0348199978471; config: pg: bucket_keys" role="graphics-symbol" aria-roledescription="rule mark" transform="translate(215.70370370370375,278.84742776198044)" x2="0" y2="-17.6982831209898" stroke="black"/><line aria-label="Value Size (bytes): 1024; stddev_lower: 0.0142800025642; stddev_upper: 0.0289200022817; config: bolt: bucket" role="graphics-symbol" aria-roledescription="rule mark" transform="translate(269.6296296296297,278.16799787538395)" x2="0" y2="-12.130285480192754" stroke="black"/><line aria-label="Value Size (bytes): 1024; stddev_lower: 0.0112800011411; stddev_upper: 0.042040001601; config: pg: bucket" role="graphics-symbol" aria-roledescription="rule mark" transform="translate(300.44444444444446,280.6537133402058)" x2="0" y2="-25.486857523875585" stroke="black"/><line aria-label="Value Size (bytes): 1024; stddev_lower: 0.0138599984348; stddev_upper: 0.0366199985147; config: pg: bucket_keys" role="graphics-symbol" aria-roledescription="rule mark" transform="translate(331.2592592592593,278.5160012968949)" x2="0" y2="-18.858285780463916" stroke="black"/><line aria-label="Value Size (bytes): 2048; stddev_lower: 0.0145000014454; stddev_upper: 0.0317800045013; config: bolt: bucket" role="graphics-symbol" aria-roledescription="rule mark" transform="translate(385.1851851851852,277.9857130880867)" x2="0" y2="-14.317716817770702" stroke="black"/><line aria-label="Value Size (bytes): 2048; stddev_lower: 0.00959999673069; stddev_upper: 0.0566399991512; config: pg: bucket" role="graphics-symbol" aria-roledescription="rule mark" transform="translate(416.00000000000006,282.0457169945751)" x2="0" y2="-38.976002005594154" stroke="black"/><line aria-label="Value Size (bytes): 2048; stddev_lower: 0.0122799966484; stddev_upper: 0.0481600016356; config: pg: bucket_keys" role="graphics-symbol" aria-roledescription="rule mark" transform="translate(446.8148148148149,279.8251456341573)" x2="0" y2="-29.729146989328513" stroke="black"/><line aria-label="Value Size (bytes): 4096; stddev_lower: 0.0172400027514; stddev_upper: 0.0371600016952; config: bolt: bucket" role="graphics-symbol" aria-roledescription="rule mark" transform="translate(500.74074074074076,275.71542629173825)" x2="0" y2="-16.505141982010457" stroke="black"/><line aria-label="Value Size (bytes): 4096; stddev_lower: 0.0102000012994; stddev_upper: 0.0710799992085; config: pg: bucket" role="graphics-symbol" aria-roledescription="rule mark" transform="translate(531.5555555555557,281.54857035194124)" x2="0" y2="-50.44342683894294" stroke="black"/><line aria-label="Value Size (bytes): 4096; stddev_lower: 0.012120001018; stddev_upper: 0.0608000010252; config: pg: bucket_keys" role="graphics-symbol" aria-roledescription="rule mark" transform="translate(562.3703703703704,279.95771344218934)" x2="0" y2="-40.334857148783556" stroke="black"/><line aria-label="Value Size (bytes): 8192; stddev_lower: 0.0198399983346; stddev_upper: 0.0416399985552; config: bolt: bucket" role="graphics-symbol" aria-roledescription="rule mark" transform="translate(616.2962962962963,273.5611442370074)" x2="0" y2="-18.06285732558794" stroke="black"/><line aria-label="Value Size (bytes): 8192; stddev_lower: 0.0105200000107; stddev_upper: 0.0896800011396; config: pg: bucket" role="graphics-symbol" aria-roledescription="rule mark" transform="translate(647.1111111111111,281.283428562539)" x2="0" y2="-65.58971522109849" stroke="black"/><line aria-label="Value Size (bytes): 8192; stddev_lower: 0.0119599997997; stddev_upper: 0.0839600041509; config: pg: bucket_keys" role="graphics-symbol" aria-roledescription="rule mark" transform="translate(677.925925925926,280.09028588022505)" x2="0" y2="-59.657146462372395" stroke="black"/><line aria-label="Value Size (bytes): 16384; stddev_lower: 0.025919996202; stddev_upper: 0.0530399978161; config: bolt: bucket" role="graphics-symbol" aria-roledescription="rule mark" transform="translate(731.851851851852,268.52343171834946)" x2="0" y2="-22.47085848024915" stroke="black"/><line aria-label="Value Size (bytes): 16384; stddev_lower: 0.00705999881029; stddev_upper: 0.131980001926; config: pg: bucket" role="graphics-symbol" aria-roledescription="rule mark" transform="translate(762.6666666666667,284.1502867000444)" x2="0" y2="-103.50514543907983" stroke="black"/><line aria-label="Value Size (bytes): 16384; stddev_lower: 0.00807999819517; stddev_upper: 0.131159991026; config: pg: bucket_keys" role="graphics-symbol" aria-roledescription="rule mark" transform="translate(793.4814814814816,283.3051443525723)" x2="0" y2="-101.9805654883385" stroke="black"/></g><g class="mark-symbol role-mark layer_2_marks" role="graphics-object" aria-roledescription="symbol mark container"><path aria-label="Value Size (bytes): 256; stddev_upper: 0.0257600005716; config: bolt: bucket" role="graphics-symbol" aria-roledescription="point" transform="translate(38.518518518518555,268.6559995263815)" d="M1.581,0A1.581,1.581,0,1,1,-1.581,0A1.581,1.581,0,1,1,1.581,0" stroke="black" stroke-width="2" opacity="0.7"/><path aria-label="Value Size (bytes): 256; stddev_upper: 0.0374800004065; config: pg: bucket" role="graphics-symbol" aria-roledescription="point" transform="translate(69.33333333333337,258.94514252032553)" d="M1.581,0A1.581,1.581,0,1,1,-1.581,0A1.581,1.581,0,1,1,1.581,0" stroke="black" stroke-width="2" opacity="0.7"/><path aria-label="Value Size (bytes): 256; stddev_upper: 0.032460000366; config: pg: bucket_keys" role="graphics-symbol" aria-roledescription="point" transform="translate(100.1481481481482,263.10457112533703)" d="M1.581,0A1.581,1.581,0,1,1,-1.581,0A1.581,1.581,0,1,1,1.581,0" stroke="black" stroke-width="2" opacity="0.7"/><path aria-label="Value Size (bytes): 512; stddev_upper: 0.0268000010401; config: bolt: bucket" role="graphics-symbol" aria-roledescription="point" transform="translate(154.0740740740741,267.7942848524877)" d="M1.581,0A1.581,1.581,0,1,1,-1.581,0A1.581,1.581,0,1,1,1.581,0" stroke="black" stroke-width="2" opacity="0.7"/><path aria-label="Value Size (bytes): 512; stddev_upper: 0.0415199957788; config: pg: bucket" role="graphics-symbol" aria-roledescription="point" transform="translate(184.8888888888889,255.59771778328079)" d="M1.581,0A1.581,1.581,0,1,1,-1.581,0A1.581,1.581,0,1,1,1.581,0" stroke="black" stroke-width="2" opacity="0.7"/><path aria-label="Value Size (bytes): 512; stddev_upper: 0.0348199978471; config: pg: bucket_keys" role="graphics-symbol" aria-roledescription="point" transform="translate(215.70370370370375,261.14914464099064)" d="M1.581,0A1.581,1.581,0,1,1,-1.581,0A1.581,1.581,0,1,1,1.581,0" stroke="black" stroke-width="2" opacity="0.7"/><path aria-label="Value Size (bytes): 1024; stddev_upper: 0.0289200022817; config: bolt: bucket" role="graphics-symbol" aria-roledescription="point" transform="translate(269.6296296296297,266.0377123951912)" d="M1.581,0A1.581,1.581,0,1,1,-1.581,0A1.581,1.581,0,1,1,1.581,0" stroke="black" stroke-width="2" opacity="0.7"/><path aria-label="Value Size (bytes): 1024; stddev_upper: 0.042040001601; config: pg: bucket" role="graphics-symbol" aria-roledescription="point" transform="translate(300.44444444444446,255.1668558163302)" d="M1.581,0A1.581,1.581,0,1,1,-1.581,0A1.581,1.581,0,1,1,1.581,0" stroke="black" stroke-width="2" opacity="0.7"/><path aria-label="Value Size (bytes): 1024; stddev_upper: 0.0366199985147; config: pg: bucket_keys" role="graphics-symbol" aria-roledescription="point" transform="translate(331.2592592592593,259.657715516431)" d="M1.581,0A1.581,1.581,0,1,1,-1.581,0A1.581,1.581,0,1,1,1.581,0" stroke="black" stroke-width="2" opacity="0.7"/><path aria-label="Value Size (bytes): 2048; stddev_upper: 0.0317800045013; config: bolt: bucket" role="graphics-symbol" aria-roledescription="point" transform="translate(385.1851851851852,263.667996270316)" d="M1.581,0A1.581,1.581,0,1,1,-1.581,0A1.581,1.581,0,1,1,1.581,0" stroke="black" stroke-width="2" opacity="0.7"/><path aria-label="Value Size (bytes): 2048; stddev_upper: 0.0566399991512; config: pg: bucket" role="graphics-symbol" aria-roledescription="point" transform="translate(416.00000000000006,243.06971498898096)" d="M1.581,0A1.581,1.581,0,1,1,-1.581,0A1.581,1.581,0,1,1,1.581,0" stroke="black" stroke-width="2" opacity="0.7"/><path aria-label="Value Size (bytes): 2048; stddev_upper: 0.0481600016356; config: pg: bucket_keys" role="graphics-symbol" aria-roledescription="point" transform="translate(446.8148148148149,250.0959986448288)" d="M1.581,0A1.581,1.581,0,1,1,-1.581,0A1.581,1.581,0,1,1,1.581,0" stroke="black" stroke-width="2" opacity="0.7"/><path aria-label="Value Size (bytes): 4096; stddev_upper: 0.0371600016952; config: bolt: bucket" role="graphics-symbol" aria-roledescription="point" transform="translate(500.74074074074076,259.2102843097278)" d="M1.581,0A1.581,1.581,0,1,1,-1.581,0A1.581,1.581,0,1,1,1.581,0" stroke="black" stroke-width="2" opacity="0.7"/><path aria-label="Value Size (bytes): 4096; stddev_upper: 0.0710799992085; config: pg: bucket" role="graphics-symbol" aria-roledescription="point" transform="translate(531.5555555555557,231.1051435129983)" d="M1.581,0A1.581,1.581,0,1,1,-1.581,0A1.581,1.581,0,1,1,1.581,0" stroke="black" stroke-width="2" opacity="0.7"/><path aria-label="Value Size (bytes): 4096; stddev_upper: 0.0608000010252; config: pg: bucket_keys" role="graphics-symbol" aria-roledescription="point" transform="translate(562.3703703703704,239.6228562934058)" d="M1.581,0A1.581,1.581,0,1,1,-1.581,0A1.581,1.581,0,1,1,1.581,0" stroke="black" stroke-width="2" opacity="0.7"/><path aria-label="Value Size (bytes): 8192; stddev_upper: 0.0416399985552; config: bolt: bucket" role="graphics-symbol" aria-roledescription="point" transform="translate(616.2962962962963,255.49828691141946)" d="M1.581,0A1.581,1.581,0,1,1,-1.581,0A1.581,1.581,0,1,1,1.581,0" stroke="black" stroke-width="2" opacity="0.7"/><path aria-label="Value Size (bytes): 8192; stddev_upper: 0.0896800011396; config: pg: bucket" role="graphics-symbol" aria-roledescription="point" transform="translate(647.1111111111111,215.69371334144049)" d="M1.581,0A1.581,1.581,0,1,1,-1.581,0A1.581,1.581,0,1,1,1.581,0" stroke="black" stroke-width="2" opacity="0.7"/><path aria-label="Value Size (bytes): 8192; stddev_upper: 0.0839600041509; config: pg: bucket_keys" role="graphics-symbol" aria-roledescription="point" transform="translate(677.925925925926,220.43313941785266)" d="M1.581,0A1.581,1.581,0,1,1,-1.581,0A1.581,1.581,0,1,1,1.581,0" stroke="black" stroke-width="2" opacity="0.7"/><path aria-label="Value Size (bytes): 16384; stddev_upper: 0.0530399978161; config: bolt: bucket" role="graphics-symbol" aria-roledescription="point" transform="translate(731.851851851852,246.0525732381003)" d="M1.581,0A1.581,1.581,0,1,1,-1.581,0A1.581,1.581,0,1,1,1.581,0" stroke="black" stroke-width="2" opacity="0.7"/><path aria-label="Value Size (bytes): 16384; stddev_upper: 0.131980001926; config: pg: bucket" role="graphics-symbol" aria-roledescription="point" transform="translate(762.6666666666667,180.64514126096455)" d="M1.581,0A1.581,1.581,0,1,1,-1.581,0A1.581,1.581,0,1,1,1.581,0" stroke="black" stroke-width="2" opacity="0.7"/><path aria-label="Value Size (bytes): 16384; stddev_upper: 0.131159991026; config: pg: bucket_keys" role="graphics-symbol" aria-roledescription="point" transform="translate(793.4814814814816,181.3245788642338)" d="M1.581,0A1.581,1.581,0,1,1,-1.581,0A1.581,1.581,0,1,1,1.581,0" stroke="black" stroke-width="2" opacity="0.7"/></g><g class="mark-symbol role-mark layer_3_marks" role="graphics-object" aria-roledescription="symbol mark container"><path aria-label="Value Size (bytes): 256; stddev_lower: 0.0133599992841; config: bolt: bucket" role="graphics-symbol" aria-roledescription="point" transform="translate(38.518518518518555,278.93028630742003)" d="M1.581,0A1.581,1.581,0,1,1,-1.581,0A1.581,1.581,0,1,1,1.581,0" stroke="black" stroke-width="2" opacity="0.7"/><path aria-label="Value Size (bytes): 256; stddev_lower: 0.0112399989739; config: pg: bucket" role="graphics-symbol" aria-roledescription="point" transform="translate(69.33333333333337,280.6868579930493)" d="M1.581,0A1.581,1.581,0,1,1,-1.581,0A1.581,1.581,0,1,1,1.581,0" stroke="black" stroke-width="2" opacity="0.7"/><path aria-label="Value Size (bytes): 256; stddev_lower: 0.0133400000632; config: pg: bucket_keys" role="graphics-symbol" aria-roledescription="point" transform="translate(100.1481481481482,278.94685709050725)" d="M1.581,0A1.581,1.581,0,1,1,-1.581,0A1.581,1.581,0,1,1,1.581,0" stroke="black" stroke-width="2" opacity="0.7"/><path aria-label="Value Size (bytes): 512; stddev_lower: 0.0138000007719; config: bolt: bucket" role="graphics-symbol" aria-roledescription="point" transform="translate(154.0740740740741,278.56571364615644)" d="M1.581,0A1.581,1.581,0,1,1,-1.581,0A1.581,1.581,0,1,1,1.581,0" stroke="black" stroke-width="2" opacity="0.7"/><path aria-label="Value Size (bytes): 512; stddev_lower: 0.011679998599; config: pg: bucket" role="graphics-symbol" aria-roledescription="point" transform="translate(184.8888888888889,280.32228687512026)" d="M1.581,0A1.581,1.581,0,1,1,-1.581,0A1.581,1.581,0,1,1,1.581,0" stroke="black" stroke-width="2" opacity="0.7"/><path aria-label="Value Size (bytes): 512; stddev_lower: 0.0134600009769; config: pg: bucket_keys" role="graphics-symbol" aria-roledescription="point" transform="translate(215.70370370370375,278.84742776198044)" d="M1.581,0A1.581,1.581,0,1,1,-1.581,0A1.581,1.581,0,1,1,1.581,0" stroke="black" stroke-width="2" opacity="0.7"/><path aria-label="Value Size (bytes): 1024; stddev_lower: 0.0142800025642; config: bolt: bucket" role="graphics-symbol" aria-roledescription="point" transform="translate(269.6296296296297,278.16799787538395)" d="M1.581,0A1.581,1.581,0,1,1,-1.581,0A1.581,1.581,0,1,1,1.581,0" stroke="black" stroke-width="2" opacity="0.7"/><path aria-label="Value Size (bytes): 1024; stddev_lower: 0.0112800011411; config: pg: bucket" role="graphics-symbol" aria-roledescription="point" transform="translate(300.44444444444446,280.6537133402058)" d="M1.581,0A1.581,1.581,0,1,1,-1.581,0A1.581,1.581,0,1,1,1.581,0" stroke="black" stroke-width="2" opacity="0.7"/><path aria-label="Value Size (bytes): 1024; stddev_lower: 0.0138599984348; config: pg: bucket_keys" role="graphics-symbol" aria-roledescription="point" transform="translate(331.2592592592593,278.5160012968949)" d="M1.581,0A1.581,1.581,0,1,1,-1.581,0A1.581,1.581,0,1,1,1.581,0" stroke="black" stroke-width="2" opacity="0.7"/><path aria-label="Value Size (bytes): 2048; stddev_lower: 0.0145000014454; config: bolt: bucket" role="graphics-symbol" aria-roledescription="point" transform="translate(385.1851851851852,277.9857130880867)" d="M1.581,0A1.581,1.581,0,1,1,-1.581,0A1.581,1.581,0,1,1,1.581,0" stroke="black" stroke-width="2" opacity="0.7"/><path aria-label="Value Size (bytes): 2048; stddev_lower: 0.00959999673069; config: pg: bucket" role="graphics-symbol" aria-roledescription="point" transform="translate(416.00000000000006,282.0457169945751)" d="M1.581,0A1.581,1.581,0,1,1,-1.581,0A1.581,1.581,0,1,1,1.581,0" stroke="black" stroke-width="2" opacity="0.7"/><path aria-label="Value Size (bytes): 2048; stddev_lower: 0.0122799966484; config: pg: bucket_keys" role="graphics-symbol" aria-roledescription="point" transform="translate(446.8148148148149,279.8251456341573)" d="M1.581,0A1.581,1.581,0,1,1,-1.581,0A1.581,1.581,0,1,1,1.581,0" stroke="black" stroke-width="2" opacity="0.7"/><path aria-label="Value Size (bytes): 4096; stddev_lower: 0.0172400027514; config: bolt: bucket" role="graphics-symbol" aria-roledescription="point" transform="translate(500.74074074074076,275.71542629173825)" d="M1.581,0A1.581,1.581,0,1,1,-1.581,0A1.581,1.581,0,1,1,1.581,0" stroke="black" stroke-width="2" opacity="0.7"/><path aria-label="Value Size (bytes): 4096; stddev_lower: 0.0102000012994; config: pg: bucket" role="graphics-symbol" aria-roledescription="point" transform="translate(531.5555555555557,281.54857035194124)" d="M1.581,0A1.581,1.581,0,1,1,-1.581,0A1.581,1.581,0,1,1,1.581,0" stroke="black" stroke-width="2" opacity="0.7"/><path aria-label="Value Size (bytes): 4096; stddev_lower: 0.012120001018; config: pg: bucket_keys" role="graphics-symbol" aria-roledescription="point" transform="translate(562.3703703703704,279.95771344218934)" d="M1.581,0A1.581,1.581,0,1,1,-1.581,0A1.581,1.581,0,1,1,1.581,0" stroke="black" stroke-width="2" opacity="0.7"/><path aria-label="Value Size (bytes): 8192; stddev_lower: 0.0198399983346; config: bolt: bucket" role="graphics-symbol" aria-roledescription="point" transform="translate(616.2962962962963,273.5611442370074)" d="M1.581,0A1.581,1.581,0,1,1,-1.581,0A1.581,1.581,0,1,1,1.581,0" stroke="black" stroke-width="2" opacity="0.7"/><path aria-label="Value Size (bytes): 8192; stddev_lower: 0.0105200000107; config: pg: bucket" role="graphics-symbol" aria-roledescription="point" transform="translate(647.1111111111111,281.283428562539)" d="M1.581,0A1.581,1.581,0,1,1,-1.581,0A1.581,1.581,0,1,1,1.581,0" stroke="black" stroke-width="2" opacity="0.7"/><path aria-label="Value Size (bytes): 8192; stddev_lower: 0.0119599997997; config: pg: bucket_keys" role="graphics-symbol" aria-roledescription="point" transform="translate(677.925925925926,280.09028588022505)" d="M1.581,0A1.581,1.581,0,1,1,-1.581,0A1.581,1.581,0,1,1,1.581,0" stroke="black" stroke-width="2" opacity="0.7"/><path aria-label="Value Size (bytes): 16384; stddev_lower: 0.025919996202; config: bolt: bucket" role="graphics-symbol" aria-roledescription="point" transform="translate(731.851851851852,268.52343171834946)" d="M1.581,0A1.581,1.581,0,1,1,-1.581,0A1.581,1.581,0,1,1,1.581,0" stroke="black" stroke-width="2" opacity="0.7"/><path aria-label="Value Size (bytes): 16384; stddev_lower: 0.00705999881029; config: pg: bucket" role="graphics-symbol" aria-roledescription="point" transform="translate(762.6666666666667,284.1502867000444)" d="M1.581,0A1.581,1.581,0,1,1,-1.581,0A1.581,1.581,0,1,1,1.581,0" stroke="black" stroke-width="2" opacity="0.7"/><path aria-label="Value Size (bytes): 16384; stddev_lower: 0.00807999819517; config: pg: bucket_keys" role="graphics-symbol" aria-roledescription="point" transform="translate(793.4814814814816,283.3051443525723)" d="M1.581,0A1.581,1.581,0,1,1,-1.581,0A1.581,1.581,0,1,1,1.581,0" stroke="black" stroke-width="2" opacity="0.7"/></g><g class="mark-symbol role-mark layer_4_marks" role="graphics-object" aria-roledescription="symbol mark container"><path aria-label="Value Size (bytes): 256; read_slowest_response_s_avg: 0.0400200001895; config: bolt: bucket" role="graphics-symbol" aria-roledescription="point" transform="translate(38.518518518518555,256.8405712715217)" d="M1.414,0A1.414,1.414,0,1,1,-1.414,0A1.414,1.414,0,1,1,1.414,0" stroke="red" stroke-width="2" opacity="0.7"/><path aria-label="Value Size (bytes): 256; read_slowest_response_s_avg: 0.0741999968886; config: pg: bucket" role="graphics-symbol" aria-roledescription="point" transform="translate(69.33333333333337,228.52000257798602)" d="M1.414,0A1.414,1.414,0,1,1,-1.414,0A1.414,1.414,0,1,1,1.414,0" stroke="red" stroke-width="2" opacity="0.7"/><path aria-label="Value Size (bytes): 256; read_slowest_response_s_avg: 0.0565799996257; config: pg: bucket_keys" role="graphics-symbol" aria-roledescription="point" transform="translate(100.1481481481482,243.11942888157708)" d="M1.414,0A1.414,1.414,0,1,1,-1.414,0A1.414,1.414,0,1,1,1.414,0" stroke="red" stroke-width="2" opacity="0.7"/><path aria-label="Value Size (bytes): 512; read_slowest_response_s_avg: 0.0437799990177; config: bolt: bucket" role="graphics-symbol" aria-roledescription="point" transform="translate(154.0740740740741,253.72514367103577)" d="M1.414,0A1.414,1.414,0,1,1,-1.414,0A1.414,1.414,0,1,1,1.414,0" stroke="red" stroke-width="2" opacity="0.7"/><path aria-label="Value Size (bytes): 512; read_slowest_response_s_avg: 0.0785000026226; config: pg: bucket" role="graphics-symbol" aria-roledescription="point" transform="translate(184.8888888888889,224.9571406841278)" d="M1.414,0A1.414,1.414,0,1,1,-1.414,0A1.414,1.414,0,1,1,1.414,0" stroke="red" stroke-width="2" opacity="0.7"/><path aria-label="Value Size (bytes): 512; read_slowest_response_s_avg: 0.0629600062966; config: pg: bucket_keys" role="graphics-symbol" aria-roledescription="point" transform="translate(215.70370370370375,237.83313763993127)" d="M1.414,0A1.414,1.414,0,1,1,-1.414,0A1.414,1.414,0,1,1,1.414,0" stroke="red" stroke-width="2" opacity="0.7"/><path aria-label="Value Size (bytes): 1024; read_slowest_response_s_avg: 0.046360000968; config: bolt: bucket" role="graphics-symbol" aria-roledescription="point" transform="translate(269.6296296296297,251.58742776938846)" d="M1.414,0A1.414,1.414,0,1,1,-1.414,0A1.414,1.414,0,1,1,1.414,0" stroke="red" stroke-width="2" opacity="0.7"/><path aria-label="Value Size (bytes): 1024; read_slowest_response_s_avg: 0.082800000906; config: pg: bucket" role="graphics-symbol" aria-roledescription="point" transform="translate(300.44444444444446,221.3942849636078)" d="M1.414,0A1.414,1.414,0,1,1,-1.414,0A1.414,1.414,0,1,1,1.414,0" stroke="red" stroke-width="2" opacity="0.7"/><path aria-label="Value Size (bytes): 1024; read_slowest_response_s_avg: 0.064899995923; config: pg: bucket_keys" role="graphics-symbol" aria-roledescription="point" transform="translate(331.2592592592593,236.22571766376495)" d="M1.414,0A1.414,1.414,0,1,1,-1.414,0A1.414,1.414,0,1,1,1.414,0" stroke="red" stroke-width="2" opacity="0.7"/><path aria-label="Value Size (bytes): 2048; read_slowest_response_s_avg: 0.0566600039601; config: bolt: bucket" role="graphics-symbol" aria-roledescription="point" transform="translate(385.1851851851852,243.05313957589013)" d="M1.414,0A1.414,1.414,0,1,1,-1.414,0A1.414,1.414,0,1,1,1.414,0" stroke="red" stroke-width="2" opacity="0.7"/><path aria-label="Value Size (bytes): 2048; read_slowest_response_s_avg: 0.109360001981; config: pg: bucket" role="graphics-symbol" aria-roledescription="point" transform="translate(416.00000000000006,199.3874269298145)" d="M1.414,0A1.414,1.414,0,1,1,-1.414,0A1.414,1.414,0,1,1,1.414,0" stroke="red" stroke-width="2" opacity="0.7"/><path aria-label="Value Size (bytes): 2048; read_slowest_response_s_avg: 0.0957999974489; config: pg: bucket_keys" role="graphics-symbol" aria-roledescription="point" transform="translate(446.8148148148149,210.62285925660817)" d="M1.414,0A1.414,1.414,0,1,1,-1.414,0A1.414,1.414,0,1,1,1.414,0" stroke="red" stroke-width="2" opacity="0.7"/><path aria-label="Value Size (bytes): 4096; read_slowest_response_s_avg: 0.0615400001407; config: bolt: bucket" role="graphics-symbol" aria-roledescription="point" transform="translate(500.74074074074076,239.00971416916164)" d="M1.414,0A1.414,1.414,0,1,1,-1.414,0A1.414,1.414,0,1,1,1.414,0" stroke="red" stroke-width="2" opacity="0.7"/><path aria-label="Value Size (bytes): 4096; read_slowest_response_s_avg: 0.155579999089; config: pg: bucket" role="graphics-symbol" aria-roledescription="point" transform="translate(531.5555555555557,161.090857897486)" d="M1.414,0A1.414,1.414,0,1,1,-1.414,0A1.414,1.414,0,1,1,1.414,0" stroke="red" stroke-width="2" opacity="0.7"/><path aria-label="Value Size (bytes): 4096; read_slowest_response_s_avg: 0.115980006754; config: pg: bucket_keys" role="graphics-symbol" aria-roledescription="point" transform="translate(562.3703703703704,193.90228011778422)" d="M1.414,0A1.414,1.414,0,1,1,-1.414,0A1.414,1.414,0,1,1,1.414,0" stroke="red" stroke-width="2" opacity="0.7"/><path aria-label="Value Size (bytes): 8192; read_slowest_response_s_avg: 0.0705799907446; config: bolt: bucket" role="graphics-symbol" aria-roledescription="point" transform="translate(616.2962962962963,231.51943624019623)" d="M1.414,0A1.414,1.414,0,1,1,-1.414,0A1.414,1.414,0,1,1,1.414,0" stroke="red" stroke-width="2" opacity="0.7"/><path aria-label="Value Size (bytes): 8192; read_slowest_response_s_avg: 0.189640000463; config: pg: bucket" role="graphics-symbol" aria-roledescription="point" transform="translate(647.1111111111111,132.86971390247345)" d="M1.414,0A1.414,1.414,0,1,1,-1.414,0A1.414,1.414,0,1,1,1.414,0" stroke="red" stroke-width="2" opacity="0.7"/><path aria-label="Value Size (bytes): 8192; read_slowest_response_s_avg: 0.16726000607; config: pg: bucket_keys" role="graphics-symbol" aria-roledescription="point" transform="translate(677.925925925926,151.41313782760074)" d="M1.414,0A1.414,1.414,0,1,1,-1.414,0A1.414,1.414,0,1,1,1.414,0" stroke="red" stroke-width="2" opacity="0.7"/><path aria-label="Value Size (bytes): 16384; read_slowest_response_s_avg: 0.0865000039339; config: bolt: bucket" role="graphics-symbol" aria-roledescription="point" transform="translate(731.851851851852,218.32856816904885)" d="M1.414,0A1.414,1.414,0,1,1,-1.414,0A1.414,1.414,0,1,1,1.414,0" stroke="red" stroke-width="2" opacity="0.7"/><path aria-label="Value Size (bytes): 16384; read_slowest_response_s_avg: 0.296220004559; config: pg: bucket" role="graphics-symbol" aria-roledescription="point" transform="translate(762.6666666666667,44.56056765147616)" d="M1.414,0A1.414,1.414,0,1,1,-1.414,0A1.414,1.414,0,1,1,1.414,0" stroke="red" stroke-width="2" opacity="0.7"/><path aria-label="Value Size (bytes): 16384; read_slowest_response_s_avg: 0.30952000618; config: pg: bucket_keys" role="graphics-symbol" aria-roledescription="point" transform="translate(793.4814814814816,33.54056630815778)" d="M1.414,0A1.414,1.414,0,1,1,-1.414,0A1.414,1.414,0,1,1,1.414,0" stroke="red" stroke-width="2" opacity="0.7"/></g><g class="mark-group role-legend" role="graphics-symbol" aria-roledescription="legend" aria-label="Symbol legend titled 'Database Configuration' for fill color with 3 values: bolt: bucket, pg: bucket, pg: bucket_keys"><g transform="translate(850,0)"><path class="background" aria-hidden="true" d="M0,0h125v53h-125Z" pointer-events="none"/><g><g class="mark-group role-legend-entry"><g transform="translate(0,16)"><path class="background" aria-hidden="true" d="M0,0h0v0h0Z" pointer-events="none"/><g><g class="mark-group role-scope" role="graphics-object" aria-roledescription="group mark container"><g transform="translate(0,0)"><path class="background" aria-hidden="true" d="M0,0h88.26667022705078v11h-88.26667022705078Z" pointer-events="none" opacity="1"/><g><g class="mark-symbol role-legend-symbol" pointer-events="none"><path transform="translate(6,6)" d="M-5,-5h10v10h-10Z" fill="#1f77b4" stroke-width="1.5" opacity="1"/></g><g class="mark-text role-legend-label" pointer-events="none"><text text-anchor="start" transform="translate(16,9)" font-family="sans-serif" font-size="10px" fill="#000" opacity="1">bolt: bucket</text></g></g><path class="foreground" aria-hidden="true" d="" pointer-events="none" display="none"/></g><g transform="translate(0,13)"><path class="background" aria-hidden="true" d="M0,0h88.26667022705078v11h-88.26667022705078Z" pointer-events="none" opacity="1"/><g><g class="mark-symbol role-legend-symbol" pointer-events="none"><path transform="translate(6,6)" d="M-5,-5h10v10h-10Z" fill="#ff7f0e" stroke-width="1.5" opacity="1"/></g><g class="mark-text role-legend-label" pointer-events="none"><text text-anchor="start" transform="translate(16,9)" font-family="sans-serif" font-size="10px" fill="#000" opacity="1">pg: bucket</text></g></g><path class="foreground" aria-hidden="true" d="" pointer-events="none" display="none"/></g><g transform="translate(0,26)"><path class="background" aria-hidden="true" d="M0,0h88.26667022705078v11h-88.26667022705078Z" pointer-events="none" opacity="1"/><g><g class="mark-symbol role-legend-symbol" pointer-events="none"><path transform="translate(6,6)" d="M-5,-5h10v10h-10Z" fill="#2ca02c" stroke-width="1.5" opacity="1"/></g><g class="mark-text role-legend-label" pointer-events="none"><text text-anchor="start" transform="translate(16,9)" font-family="sans-serif" font-size="10px" fill="#000" opacity="1">pg: bucket_keys</text></g></g><path class="foreground" aria-hidden="true" d="" pointer-events="none" display="none"/></g></g></g><path class="foreground" aria-hidden="true" d="" pointer-events="none" display="none"/></g></g><g class="mark-text role-legend-title" pointer-events="none"><text text-anchor="start" transform="translate(0,9)" font-family="sans-serif" font-size="11px" font-weight="bold" fill="#000" opacity="1">Database Configuration</text></g></g><path class="foreground" aria-hidden="true" d="" pointer-events="none" display="none"/></g></g><g class="mark-group role-title"><g transform="translate(416,-36)"><path class="background" aria-hidden="true" d="M0,0h0v0h0Z" pointer-events="none"/><g><g class="mark-text role-title-text" role="graphics-symbol" aria-roledescription="title" aria-label="Title text 'Write-Heavy Read Latency'" pointer-events="none"><text text-anchor="middle" transform="translate(0,10)" font-family="sans-serif" font-size="13px" font-weight="bold" fill="#000" opacity="1">Write-Heavy Read Latency</text></g><g class="mark-text role-title-subtitle" role="graphics-symbol" aria-roledescription="subtitle" aria-label="Subtitle text '512 Connections'" pointer-events="none"><text text-anchor="middle" transform="translate(0,25)" font-family="sans-serif" font-size="12px" fill="#000" opacity="1">512 Connections</text></g></g><path class="foreground" aria-hidden="true" d="" pointer-events="none" display="none"/></g></g></g><path class="foreground" aria-hidden="true" d="" display="none"/></g></g></g></svg>